HIERARCHY
ROOT ui
{
	 OFFSET 0 0 0
	 CHANNELS 3 XPosition YPosition Z Position
	 EndSite
	 {
	 OFFSET 0 -1 0
	 }
}
ROOT li
{
	 OFFSET 0 0 0
	 CHANNELS 3 XPosition YPosition Z Position
	 EndSite
	 {
	 OFFSET 0 -1 0
	 }
}
ROOT ul
{
	 OFFSET 0 0 0
	 CHANNELS 3 XPosition YPosition Z Position
	 EndSite
	 {
	 OFFSET 0 -1 0
	 }
}
ROOT ll
{
	 OFFSET 0 0 0
	 CHANNELS 3 XPosition YPosition Z Position
	 EndSite
	 {
	 OFFSET 0 -1 0
	 }
}
ROOT tt
{
	 OFFSET 0 0 0
	 CHANNELS 3 XPosition YPosition Z Position
	 EndSite
	 {
	 OFFSET 0 -1 0
	 }
}
ROOT tb
{
	 OFFSET 0 0 0
	 CHANNELS 3 XPosition YPosition Z Position
	 EndSite
	 {
	 OFFSET 0 -1 0
	 }
}
ROOT td
{
	 OFFSET 0 0 0
	 CHANNELS 3 XPosition YPosition Z Position
	 EndSite
	 {
	 OFFSET 0 -1 0
	 }
}
ROOT v
{
	 OFFSET 0 0 0
	 CHANNELS 3 XPosition YPosition Z Position
	 EndSite
	 {
	 OFFSET 0 -1 0
	 }
}
ROOT bn
{
	 OFFSET 0 0 0
	 CHANNELS 3 XPosition YPosition Z Position
	 EndSite
	 {
	 OFFSET 0 -1 0
	 }
}
MOTION
Frames: 10
Frame Time: 0.002
-0.009279243469238281	6.537489891052246E-4	0		0.42882730102539063	-2.385028564453125	0		-1.15722607421875	0.014295543670654297	0		-0.7448842163085938	-2.67695556640625	0		1.4297974853515625	-0.8576260986328125	0		3.0436865234375	0.023107809066772463	0		4.70538916015625	0.15080657958984375	0		5.58771630859375	0.08798754119873047	0		-0.22273963928222656	5.9197294921875	0		
9.813519716262817E-4	-0.009351848602294922	0		0.48140557861328126	-2.3907802734375	0		-1.1567774658203125	0.014364419937133789	0		-0.7102556762695312	-2.681483642578125	0		1.4272747802734376	-0.8602495727539062	0		3.063224609375	0.028226804733276368	0		4.70993603515625	0.15736781311035156	0		5.5880517578125	0.08922079467773437	0		-0.23608641052246093	5.908134765625	0		
-0.0017031170129776002	-0.01211258029937744	0		0.4379280090332031	-2.39472802734375	0		-1.156408935546875	0.014431943893432617	0		-0.7347449340820312	-2.687904052734375	0		1.42773046875	-0.8599248046875	0		3.07447802734375	0.022510297775268556	0		4.70617919921875	0.15209506225585936	0		5.5883310546875	0.0904815444946289	0		-0.35548904418945315	5.899515625	0		
-0.008165230751037597	0.001194069981575012	0		0.44049996948242187	-2.392542236328125	0		-1.1492286376953125	0.008365941047668458	0		-0.7290697631835937	-2.681892578125	0		1.4132623291015625	-0.8513250122070313	0		3.068123779296875	0.042125408172607424	0		4.70469970703125	0.1657825927734375	0		5.59150146484375	0.1037258529663086	0		-0.2224030456542969	5.9191875	0		
-0.020050321578979492	-0.00441201114654541	0		0.44403738403320314	-2.3883818359375	0		-1.151839111328125	0.01747657012939453	0		-0.7265400390625	-2.679830810546875	0		1.4345494384765625	-0.8523980712890625	0		3.068973876953125	0.022590940475463867	0		4.7107763671875	0.15931809997558594	0		5.59167578125	0.104978271484375	0		-0.22277412414550782	5.91933740234375	0		
0.027028825759887694	-0.00911275577545166	0		0.48340969848632814	-2.38989013671875	0		-1.0807662353515626	0.012222947120666504	0		-0.7390015258789062	-2.673502197265625	0		1.4138160400390625	-0.8507071533203125	0		3.077460693359375	0.04090903472900391	0		4.70092236328125	0.16013262939453124	0		5.588859375	0.09422283935546875	0		-0.22320188903808594	5.919478515625	0		
-0.03367301940917969	0.002154853105545044	0		0.4318457336425781	-2.38374169921875	0		-1.155632080078125	0.014640320777893066	0		-0.7406741333007812	-2.6753837890625	0		1.442961669921875	-0.8529462890625	0		3.064362548828125	0.03059936332702637	0		4.70690087890625	0.15463253784179687	0		5.58894873046875	0.09540706634521484	0		-0.22465245056152344	5.9206279296875	0		
0.017376241683959962	0.0013680009841918945	0		0.4918248291015625	-2.40064599609375	0		-1.1596475830078126	0.010748764038085938	0		-0.7285147094726563	-2.683526611328125	0		1.4021419677734375	-0.849925048828125	0		3.064417724609375	0.031027069091796877	0		4.711052734375	0.161139404296875	0		5.58900439453125	0.09653681182861328	0		-0.3575413513183594	5.90015087890625	0		
-0.01970522689819336	-0.003828145980834961	0		0.44324560546875	-2.389586181640625	0		-1.1486654052734375	0.008580897331237793	0		-0.7143504638671875	-2.68871044921875	0		1.4352142333984375	-0.851265625	0		3.088178955078125	0.016997325897216798	0		4.71078857421875	0.14668832397460937	0		5.59197509765625	0.1095830078125	0		-0.35609326171875	5.89721630859375	0		
0.02044561767578125	0.004571770191192627	0		0.49942742919921873	-2.390434814453125	0		-1.1364749755859376	0.019391794204711914	0		-0.7548045654296875	-2.669911376953125	0		1.437332763671875	-0.8480617065429688	0		3.077624267578125	0.04256706237792969	0		4.7151484375	0.16812178039550782	0		5.59198291015625	0.11057386779785157	0		-0.2099933624267578	5.92867724609375	0		
